# xmcd
#
# Track frame offsets:
#	150
#	24129
#	51232
#	80946
#	110229
#	136442
#	165971
#	193855
#	229613
#	261488
#	286986
#
# Disc length: 4135 seconds
# Revision: 0
# Processed by: cddbd v1.5.2PL0 Copyright (c) Steve Scherf et al.
# Submitted via: dBpowerAMP V12.0
#
DISCID=9d10250b
DTITLE=Various Artist - I Love ZYX Italo Disco Collection Volume 5
DYEAR=2006
DGENRE=Italo Disco
TTITLE0=Crusin Gang - Traces of Sand
TTITLE1=Joe Yellow - Love at First
TTITLE2=KB Caps - Do You Realy Need Me
TTITLE3=Duke Lake - Do You
TTITLE4=Shipra - Blinded by the Light
TTITLE5=Sauvage - Don't You Want Me
TTITLE6=Chip Chip - Everything You Love (Dolce Vita Edit)
TTITLE7=Coo Coo - Upside Down (Full Power DJ Mix)
TTITLE8=King Kong and D'Jungle Girls - Lies (Full Power DJ Mix)
TTITLE9=Thomas and Schubert - Crank It Up (Full Cry Mix)
TTITLE10=Paula Evans - Ciao
EXTD=
EXTT0=
EXTT1=
EXTT2=
EXTT3=
EXTT4=
EXTT5=
EXTT6=
EXTT7=
EXTT8=
EXTT9=
EXTT10=
PLAYORDER=
